<?xml version="1.0" encoding="UTF-8" standalone="no"?><!DOCTYPE svg PUBLIC "-//W3C//DTD SVG 1.1//EN" "http://www.w3.org/Graphics/SVG/1.1/DTD/svg11.dtd"><svg width="540" height="540" viewBox="0 0 540 540" version="1.1" xmlns="http://www.w3.org/2000/svg" xmlns:xlink="http://www.w3.org/1999/xlink" xml:space="preserve" xmlns:serif="http://www.serif.com/" style="fill-rule:evenodd;clip-rule:evenodd;stroke-linecap:round;stroke-linejoin:round;stroke-miterlimit:1.5;"><g><path d="M176.711,246.911c-1.272,-7.406 -3.477,-20.202 0.993,-38.129c1.906,-7.511 3.267,-10.972 6.212,-17.63c3.307,-5.748 2.964,-5.858 6.303,-11.58c0.49,-0.77 3.275,-5.15 6.546,-9.365c2.731,-3.506 5.302,-6.733 12.816,-13.741c0.315,-0.286 6.031,-5.637 6.669,-5.331c2.258,1.079 -6.857,13.774 3.217,37.918c0.546,1.104 5.141,13.597 24.116,28.963c4.241,3.265 4.188,3.242 8.545,6.406c5.002,3.879 44.269,30.791 19.524,64.767c-0.941,1.013 -7.804,8.395 -13.716,10.689c-14.126,5.48 -21.492,3.425 -26.405,2.67l-3.832,-0.888c-6.257,-1.752 -9.388,-3.668 -11.412,-4.625c-0.903,-0.418 -0.877,-0.367 -1.765,-0.876c-2.402,-1.236 -2.338,-1.267 -4.811,-2.679c-19.27,-12.727 -28.599,-27.724 -33,-46.567Z" style="fill:#e8a030;"/><path d="M292.733,336.121c-7.785,1.312 -15.793,1.997 -23.966,1.997c-15.362,0 -30.142,-2.418 -43.951,-6.879c17.352,4.729 25.301,2.92 33.814,1.385c4.089,-1.1 4.078,-0.99 8.065,-2.322c6.294,-2.367 6.176,-2.55 11.406,-5.16c2.884,-1.736 20.233,-12.184 28.561,-30.315c0.999,-1.907 0.931,-1.911 2.359,-5.145c16.663,-46.053 -16.577,-76.495 -46.877,-109.36l-0.995,-1.104c-6.281,-7.911 -9.364,-9.97 -18.232,-25.171c-5.659,-9.399 -17.62,-46.069 2.27,-77.71c17.363,-27.622 36.868,-41.279 42.833,-46.483c-6.983,14.861 -20.801,40.284 -3.177,78.199c0.568,1.066 0.53,1.02 1.055,2.115c2.9,5.849 5.058,8.865 6.988,11.998c0.588,0.865 4.701,7.17 7.157,10.18c17.406,22.759 18.654,21.771 36.744,44.035c7.299,10.148 7.496,10.014 13.494,20.926c0.976,1.996 15.9,26.286 7.58,61.095l-1.59,6.285c-4.814,13.878 -8.748,19.939 -11.74,24.857l-1.071,1.561c-25.197,35.152 -49.003,40.601 -59.551,45.877l6.088,-0.509c0.976,-0.131 1.856,-0.238 2.735,-0.351Z" style="fill:url(#_Linear1);"/><path d="M211.311,326.095c7.335,3.418 12.823,4.943 13.193,5.058c0.104,0.029 0.208,0.057 0.312,0.085c13.809,4.461 28.589,6.879 43.951,6.879c8.173,0 16.181,-0.684 23.966,-1.997c3.612,-0.468 7.196,-1.048 17.284,-3.839c0.538,-0.194 0.489,-0.169 3.9,-1.26c16.491,-5.94 24.081,-10.009 37.702,-19.168c5.566,-4.08 8.527,-6.607 9.239,-7.214c6.255,-5.483 6.14,-5.543 11.863,-11.487l0.755,-0.869c25.179,-28.97 34.287,-59.822 33.467,-88.297c-1.084,-37.612 -19.491,-71.079 -41.07,-90.59c-0.039,-0.037 0,-0.002 -2.561,-2.24l-2.501,-2.232c-1.101,-0.726 -0.624,-1.283 -13.32,-9.666l-2.864,-1.828c-9.117,-5.269 -18.796,-8.878 -20.493,-9.511c-23.873,-8.903 -24.417,-7.362 -26.389,-8.347c-3.01,-1.504 1.035,-30.804 9.423,-45.044c0.129,-0.19 1.345,-1.98 2.305,-1.775c9.16,1.952 18.254,4.225 27.23,6.853c5.807,2.127 10.225,3.666 19.512,7.883c9.895,4.327 18.87,10.146 22.168,12.118c4.87,3.53 23.67,14.279 45.083,40.638c3.79,4.706 3.602,4.79 7.201,9.647c1.477,2.065 4.354,6.501 4.724,7.071c2.507,4.002 5.933,10.098 6.431,10.985c5.268,10.947 5.322,10.878 6.638,14.025c1.55,3.562 6.001,15.933 8.078,24.048c1.689,6.908 11.351,46.423 -0.165,88.703c-4.422,19.39 -13.877,40.269 -14.473,41.808l-0.537,1.035c-17.789,38.052 -45.045,74.233 -49.602,80.282c-60.96,80.923 -117.203,127.765 -122.024,132.296c-8.745,-8.54 -47.688,-43.416 -94.749,-99.859c-6.34,-7.604 -49.613,-59.503 -70.491,-101.233c-0.132,-0.291 -1.165,-2.567 -1.701,-3.616c-4.718,-9.445 -6.068,-12.141 -11.237,-25.637c-5.801,-15.245 -8.576,-28.778 -9.1,-31.332c-9.303,-42.145 -1.605,-72.022 2.555,-87.668c0.995,-2.862 2.645,-8.361 4.91,-14.075c9.205,-23.161 13.901,-27.607 18.917,-36.039c9.953,-13.26 19.081,-26.236 44.576,-45.321c0.85,-0.634 5.187,-3.991 10.204,-6.919c23.18,-14.7 49.706,-21.697 54.279,-22.903c2.053,-0.495 14.639,-3.531 26.052,-4.463c4.745,-0.387 9.527,-0.297 14.265,-0.754c-14.293,15.025 -14.478,14.776 -19.651,21.106c-9.602,11.75 -20.065,33.389 -21.21,34.527c-2.398,2.386 -6.072,3.152 -9.08,4.777c-7.216,3.898 -51.229,27.67 -68.161,74.877c-3.593,11.69 -3.775,11.633 -5.699,23.39c-1.332,10.664 -3.849,28.346 5.091,56.81l6.402,15.673c5.078,10.241 6.248,12.305 13.617,22.363l1.142,1.512c18.977,23.77 36.1,32.82 44.35,37.535c2.188,1.21 4.306,2.273 6.289,3.197Z" style="fill:#c94c35;stroke:#c94c35;stroke-width:0.5px;"/></g><defs><linearGradient id="_Linear1" x1="0" y1="0" x2="1" y2="0" gradientUnits="userSpaceOnUse" gradientTransform="matrix(0,-23.106047,24.008326,0,279.767321,333.356061)"><stop offset="0" style="stop-color:#c94c35;stop-opacity:1"/><stop offset="1" style="stop-color:#e8a030;stop-opacity:1"/></linearGradient></defs></svg>
