<svg width="241" height="194" viewBox="0 0 241 194" fill="none" xmlns="http://www.w3.org/2000/svg">
  <!--
    Cup body is the outer filled shape; handle loop and heart are inner holes
    achieved via evenodd fill rule so they show the background through.
  -->
  <path
    fill-rule="evenodd"
    clip-rule="evenodd"
    fill="currentColor"
    d="M15.1975 67.7674C15.1975 37.5285 33.3866 21.164 54.7559 18.4334C70.8987 16.387 90.906 16.1589 114.544 16.1589C151.372 16.1589 160.919 16.6151 174.559 17.9772C206.617 21.1576 225.255 40.937 225.255 69.3577V72.9941C225.255 99.3687 205.932 120.966 179.786 123.234C177.74 130.058 174.559 136.874 170.238 143.698C160.235 159.156 140.228 178.707 103.4 178.707H96.1264C66.1155 178.707 42.9277 165.751 29.0595 142.107C16.7814 121.422 15.1912 98.4563 15.1912 67.7674
    M166.158 83.6801C166.158 86.4107 168.204 88.4572 171.841 88.4572C183.435 88.4572 189.802 81.8619 189.802 70.9523C189.802 60.0427 183.435 53.2195 171.841 53.2195C168.204 53.2195 166.158 55.2657 166.158 57.9963V83.6866V83.6801Z
    M54.5321 82.3198C54.5321 95.732 62.0332 107.326 71.5807 116.424C77.9478 122.562 87.9515 128.93 94.7685 133.022C96.8147 134.157 98.8611 134.841 101.136 134.841C103.866 134.841 106.134 134.157 107.959 133.022C114.782 128.93 124.779 122.562 130.919 116.424C140.694 107.332 148.195 95.7383 148.195 82.3198C148.195 67.7673 137.286 54.8115 121.599 54.8115C112.28 54.8115 105.912 59.5882 101.136 66.1772C96.8147 59.582 90.2259 54.8115 80.9001 54.8115C64.9855 54.8115 54.5256 67.7673 54.5256 82.3198"
  />
</svg>
