<?xml version="1.0" encoding="UTF-8" standalone="no"?>
<!DOCTYPE svg PUBLIC "-//W3C//DTD SVG 1.1//EN" "http://www.w3.org/Graphics/SVG/1.1/DTD/svg11.dtd">
<svg width="100%" height="100%" viewBox="0 0 1080 1080" version="1.1" xmlns="http://www.w3.org/2000/svg" xmlns:xlink="http://www.w3.org/1999/xlink" xml:space="preserve" xmlns:serif="http://www.serif.com/" style="fill-rule:evenodd;clip-rule:evenodd;stroke-linecap:round;stroke-linejoin:round;stroke-miterlimit:1.5;">
    <g transform="matrix(0.693235,0,0,0.657305,129.200552,113.556875)">
        <rect x="-186.373" y="-172.761" width="1557.913" height="1643.072" style="fill:rgb(240,234,216);stroke:rgb(250,246,238);stroke-width:1.48px;"/>
    </g>
    <g transform="matrix(0.822065,0,0,0.791171,83.117962,128.633118)">
        <g transform="matrix(1.318359,0,0,1.318359,0,-135)">
            <path d="M249.409,452.517C247.061,438.315 242.993,413.78 251.241,379.405C254.759,365.003 257.271,358.366 262.705,345.6C268.807,334.579 268.175,334.369 274.337,323.397C275.241,321.92 280.38,313.521 286.417,305.44C291.456,298.717 296.201,292.53 310.067,279.092C310.647,278.545 321.196,268.284 322.374,268.869C326.541,270.939 309.72,295.281 328.311,341.575C329.319,343.692 337.798,367.646 372.814,397.111C380.64,403.37 380.543,403.326 388.583,409.394C397.813,416.831 470.277,468.434 424.612,533.581C422.875,535.523 410.211,549.679 399.3,554.077C373.232,564.584 359.639,560.645 350.573,559.196L343.502,557.493C331.955,554.134 326.177,550.46 322.443,548.625C320.777,547.825 320.824,547.922 319.185,546.945C314.752,544.574 314.87,544.516 310.307,541.808C274.747,517.405 257.531,488.648 249.409,452.517Z" style="fill:rgb(232,160,48);"/>
        </g>
        <g transform="matrix(1,0,0,1,0,-135)">
            <path d="M611.081,822.096C592.141,825.413 572.658,827.143 552.773,827.143C515.399,827.143 479.442,821.031 445.846,809.753C488.062,821.707 507.4,817.136 528.111,813.254C538.06,810.474 538.033,810.75 547.731,807.385C563.045,801.401 562.757,800.938 575.481,794.34C582.496,789.951 624.706,763.54 644.966,717.707C647.396,712.885 647.231,712.876 650.705,704.702C691.245,588.284 610.376,511.33 536.657,428.25L534.237,425.459C518.957,405.462 511.454,400.255 489.882,361.829C476.113,338.069 447.014,245.37 495.404,165.385C537.647,95.559 585.1,61.035 599.611,47.881C582.622,85.448 549.004,149.716 591.883,245.561C593.265,248.255 593.172,248.139 594.45,250.908C601.505,265.693 606.756,273.317 611.452,281.239C612.882,283.426 622.888,299.364 628.863,306.974C671.21,364.505 674.247,362.009 718.258,418.289C736.015,443.942 736.496,443.603 751.087,471.186C753.461,476.233 789.772,537.636 769.53,625.628L765.662,641.516C753.951,676.599 744.38,691.92 737.101,704.353L734.494,708.298C673.193,797.158 615.275,810.934 589.614,824.271L604.427,822.984C606.801,822.654 608.943,822.383 611.081,822.096Z" style="fill:url(#_Linear1);"/>
        </g>
        <g transform="matrix(1,0,0,1,0,-135)">
            <path d="M412.989,796.75C430.834,805.391 444.186,809.245 445.087,809.537C445.341,809.61 445.594,809.682 445.846,809.753C479.442,821.031 515.399,827.143 552.773,827.143C572.658,827.143 592.141,825.413 611.081,822.096C619.869,820.914 628.589,819.446 653.132,812.391C654.44,811.901 654.321,811.964 662.621,809.207C702.742,794.191 721.208,783.905 754.347,760.752C767.887,750.437 775.092,744.051 776.825,742.515C792.043,728.656 791.762,728.503 805.687,713.478L807.524,711.281C868.781,638.047 890.941,560.057 888.945,488.074C886.308,392.994 841.525,308.394 789.025,259.071C788.929,258.977 789.025,259.067 782.794,253.409L776.709,247.766C774.03,245.931 775.19,244.524 744.303,223.332L737.337,218.711C715.157,205.392 691.609,196.268 687.48,194.668C629.4,172.163 628.077,176.059 623.279,173.568C615.957,169.766 625.798,95.698 646.205,59.702C646.519,59.221 649.478,54.697 651.814,55.214C674.099,60.147 696.224,65.895 718.062,72.537C732.189,77.915 742.937,81.803 765.531,92.464C789.605,103.403 811.441,118.112 819.463,123.098C831.313,132.02 877.051,159.194 929.146,225.828C938.366,237.724 937.908,237.935 946.665,250.213C950.259,255.432 957.259,266.647 958.159,268.089C964.258,278.206 972.593,293.615 973.806,295.857C986.622,323.531 986.752,323.356 989.955,331.311C993.725,340.316 1004.555,371.587 1009.608,392.102C1013.717,409.564 1037.224,509.455 1009.207,616.334C998.449,665.35 975.446,718.129 973.995,722.019L972.688,724.637C929.409,820.827 863.099,912.289 852.011,927.582C703.701,1132.147 566.868,1250.559 555.14,1262.013C533.864,1240.425 439.12,1152.262 324.625,1009.579C309.201,990.358 203.922,859.16 153.127,753.671C152.806,752.935 150.294,747.183 148.99,744.529C137.512,720.652 134.227,713.837 121.651,679.721C107.538,641.185 100.787,606.973 99.513,600.519C76.879,493.981 95.608,418.455 105.73,378.902C108.15,371.666 112.164,357.765 117.675,343.322C140.07,284.774 151.493,273.534 163.698,252.219C187.914,218.7 210.121,185.896 272.147,137.651C274.216,136.047 284.767,127.562 296.973,120.161C353.368,83 417.903,65.314 429.028,62.265C434.024,61.013 464.643,53.338 492.409,50.984C503.954,50.005 515.587,50.234 527.115,49.078C492.342,87.061 491.891,86.432 479.307,102.433C455.947,132.136 430.49,186.836 427.706,189.714C421.871,195.745 412.933,197.683 405.615,201.79C388.059,211.643 280.981,271.736 239.787,391.071C231.045,420.622 230.602,420.479 225.921,450.199C222.68,477.157 216.558,521.856 238.307,593.809L253.881,633.429C266.236,659.318 269.083,664.536 287.009,689.96L289.789,693.784C335.957,753.871 377.616,776.75 397.688,788.668C403.012,791.728 408.165,794.414 412.989,796.75Z" style="fill:rgb(201,76,53);stroke:rgb(201,76,53);stroke-width:1.24px;"/>
        </g>
    </g>
    <defs>
        <linearGradient id="_Linear1" x1="0" y1="0" x2="1" y2="0" gradientUnits="userSpaceOnUse" gradientTransform="matrix(0,-58.40977,58.40977,0,579.536212,815.1049)"><stop offset="0" style="stop-color:rgb(201,76,53);stop-opacity:1"/><stop offset="1" style="stop-color:rgb(232,160,48);stop-opacity:1"/></linearGradient>
    </defs>
</svg>
