<?xml version="1.0" encoding="UTF-8" standalone="no"?>
<!DOCTYPE svg PUBLIC "-//W3C//DTD SVG 1.1//EN" "http://www.w3.org/Graphics/SVG/1.1/DTD/svg11.dtd">
<svg width="100%" height="100%" viewBox="0 0 546 856" version="1.1" xmlns="http://www.w3.org/2000/svg" xmlns:xlink="http://www.w3.org/1999/xlink" xml:space="preserve" xmlns:serif="http://www.serif.com/" style="fill-rule:evenodd;clip-rule:evenodd;stroke-linejoin:round;stroke-miterlimit:2;">
    <path d="M219.029,306.449C217.421,306.861 216.713,307.324 216.208,307.483C215.771,307.62 215.451,307.591 214.978,307.239C214.231,306.682 213.836,305.275 215.734,303.353C217.147,301.923 217.873,301.804 218.573,301.793C218.601,301.138 218.629,300.377 218.653,299.496C218.527,295.315 219.276,294.812 216.811,291.979C216.041,291.488 215.371,291.775 214.794,292.087C214.306,292.351 213.867,292.63 213.484,292.675C213.001,292.733 212.627,292.45 212.401,292.013C212.103,291.439 212.09,290.608 212.328,290.216C212.523,289.892 212.686,289.642 213.496,289.4C214.187,289.194 215.422,288.986 217.761,288.708L217.765,288.707C218.402,288.474 219.271,288.266 220.448,288.11C224.651,287.554 226.864,287.375 228.097,287.396C229.461,287.419 229.735,287.685 230.048,287.96C230.614,288.458 230.787,288.91 230.734,289.285C230.68,289.666 230.384,290.012 229.888,290.291C228.57,291.031 225.739,291.385 224.024,291.644C223.602,291.707 223.25,291.765 223.013,291.823C222.93,291.843 222.834,291.877 222.811,291.886C222.747,291.951 222.704,292.074 222.656,292.231C222.554,292.569 222.481,293.045 222.428,293.591C222.212,295.791 222.322,299.108 222.337,299.549C222.355,300.102 222.493,300.466 222.751,300.68C223.157,301.017 223.802,300.978 224.536,300.82C226.007,300.503 227.803,299.641 229.051,299.36C229.69,299.216 230.206,299.235 230.521,299.452C230.909,299.718 231.109,300.014 231.173,300.316C231.266,300.756 231.069,301.241 230.603,301.725C229.108,303.279 224.702,304.993 221.737,305.862C221.572,305.945 221.355,306.012 221.075,306.052L221.054,306.055C220.104,306.311 219.369,306.451 219.029,306.449ZM294.918,691.228C296.202,680.339 296.085,680.33 296.577,678.518C296.661,678.207 297.946,674.23 299.566,672.299C300.355,671.36 301.238,670.911 302.091,671.337C302.553,671.567 303.027,672.077 303.472,672.979C304.088,674.228 304.677,676.268 305.187,679.382C306.706,688.667 306.339,688.698 306.475,689.503C308.501,701.522 307.205,710.427 307.04,718.79C306.877,727.082 307.838,734.839 314.349,744.612C321.305,755.052 325.025,762.129 328.207,767.577C332.952,775.699 336.497,780.177 347.894,786.83C352.012,789.234 356.115,792.011 361.295,792.32C366.47,792.629 372.707,790.461 381.105,783.044C408.098,759.204 417.272,750.053 420.599,748.153C421.457,747.663 422.004,747.642 422.358,747.866C422.518,747.967 422.65,748.12 422.754,748.328C422.88,748.578 422.97,748.918 423.043,749.332C423.082,749.557 423.105,749.751 423.073,749.964C423.026,750.271 422.863,750.626 422.404,751.179C421.387,752.405 418.802,754.767 412.514,760.515C392.521,778.791 381.167,788.617 373.265,793.217C365.259,797.877 360.748,797.236 354.472,794.561C329.789,784.037 323.616,767.217 321.774,763.903C312.989,748.093 310.767,749.304 304.488,732.425C304.374,732.118 304.262,731.893 304.144,731.741C304.07,731.647 304.005,731.585 303.927,731.573C303.854,731.562 303.782,731.598 303.703,731.65C303.572,731.737 303.437,731.874 303.292,732.044C303.014,732.372 302.713,732.819 302.379,733.32C301.702,734.335 301.016,734.812 300.359,734.927C299.723,735.038 299.095,734.819 298.49,734.355C297.67,733.726 296.881,732.635 296.154,731.422C294.985,729.474 293.969,727.213 293.184,726.208C293.067,726.06 292.958,725.941 292.854,725.863C292.821,725.838 292.789,725.817 292.757,725.804L292.754,725.803C292.719,725.932 292.648,726.196 292.584,726.442C292.407,727.129 292.115,728.089 291.579,728.813C291.192,729.334 290.682,729.734 290.01,729.862C288.967,730.06 287.475,729.58 285.383,727.623L285.301,727.515C285.096,727.202 284.081,725.599 283.743,724.465C283.631,724.088 283.595,723.755 283.652,723.514C283.708,723.282 283.837,723.115 284.045,723.022C284.262,722.924 284.608,722.915 285.115,723.099C285.733,723.322 286.652,723.839 287.969,724.775C288.199,724.938 288.407,725.009 288.602,724.968C288.805,724.925 288.982,724.77 289.151,724.539C289.43,724.158 289.668,723.581 289.88,722.849C292.107,715.137 290.979,690.878 290.871,688.542C290.855,688.195 290.596,682.533 290.064,680.01C289.994,679.677 289.92,679.401 289.84,679.206L289.82,679.162C289.785,679.232 289.75,679.319 289.713,679.423C289.558,679.865 289.394,680.587 289.216,681.653C289.055,682.622 289.086,683.102 289.113,683.576C289.141,684.085 289.165,684.586 288.972,685.598C285.471,703.899 286.916,704.951 285.397,713.485C285.364,713.67 285.175,714.066 284.828,714.641C284.085,715.871 282.598,718.02 280.563,720.835C268.967,736.877 239.526,774.647 228.546,787.544C209.954,809.38 186.269,793.6 181.935,790.211C157.568,771.152 152.436,758.998 149.899,754.02C149.302,752.848 148.877,752.086 148.341,751.762C147.813,751.442 147.429,751.25 147.156,751.173C147.093,751.156 147.039,751.145 146.991,751.142C146.977,751.142 146.958,751.143 146.946,751.145C146.941,751.177 146.924,751.28 146.93,751.361C146.941,751.522 146.98,751.718 147.036,751.945C147.342,753.191 148.14,755.272 148.234,757.466C148.892,772.861 152.041,809.031 152.431,813.511C157.077,866.886 156.447,866.825 156.981,871.443C157.679,877.482 160.171,939.074 160.799,947.978C160.805,948.061 160.776,948.143 160.719,948.204C160.663,948.264 160.583,948.299 160.5,948.299L156.5,948.299C156.337,948.299 156.203,948.168 156.2,948.005C154.451,860.619 146.692,814.844 137.853,662.544C131.85,559.118 132.965,559.121 133.841,455.494C133.965,440.868 134.609,435.031 135.2,432.69C135.513,431.449 135.859,431.096 136.083,430.974C136.212,430.904 136.32,430.892 136.404,430.883C137.169,430.796 137.695,430.865 138.058,431.166C138.412,431.461 138.632,432.005 138.715,432.963C138.936,435.495 138.326,441.217 138.338,453.502C138.398,512.914 135.032,525.609 140.492,633.51C141.248,648.45 141.872,655.538 142.041,657.449C142.301,660.403 142.18,660.389 144.138,694.46C144.341,697.983 145.555,726.622 146.987,739.353C147.236,741.564 147.49,743.292 147.748,744.318C147.848,744.714 147.941,744.997 148.041,745.146C148.232,745.428 165.411,775.527 187.917,789.82C188.731,790.338 193.254,792.824 199.22,794.08C205.17,795.333 212.562,795.365 219.136,790.962C222.145,788.947 228.175,782.107 235.366,773.264C252.206,752.555 275.357,720.872 280.95,714.063C281.676,713.179 281.916,711.659 282.084,709.605C282.347,706.397 282.391,701.923 283.514,696.501C284.018,694.064 284.899,684.766 286.273,677.85C286.871,674.845 287.566,672.285 288.357,670.905C288.831,670.077 289.373,669.658 289.912,669.675C290.282,669.687 290.682,669.897 291.083,670.386C291.645,671.072 292.252,672.354 292.889,674.378C294.132,678.328 294.262,688.564 294.406,691.78L294.918,691.228ZM301.254,678.793C301.151,678.734 301.054,678.708 300.961,678.731C300.841,678.759 300.735,678.852 300.628,678.986C300.436,679.227 300.261,679.591 300.095,680.06C298.299,685.132 297.837,701.817 296.55,715.503C296.368,717.441 296.31,721.713 296.496,722.492C296.975,724.505 296.904,726.122 296.973,727.347C297.019,728.166 297.113,728.796 297.563,729.224C298.009,729.648 298.777,729.862 300.092,729.917C300.188,729.737 300.244,729.568 300.309,729.403C300.532,728.831 300.806,728.278 302.529,727.571C302.822,727.451 303.067,727.34 303.264,727.133C303.573,726.808 303.756,726.264 303.88,725.181C304.219,722.228 304.013,715.56 303.705,699.51C303.67,697.714 302.579,685.75 301.725,680.771C301.612,680.109 301.503,679.573 301.402,679.204C301.353,679.026 301.273,678.839 301.254,678.793ZM367.08,335.788C367.088,337.454 367.094,344.872 366.359,349.615C366.155,350.933 365.891,352.049 365.559,352.789C365.301,353.365 364.983,353.727 364.645,353.853C363.723,354.196 363.104,354.213 362.707,353.945C362.312,353.678 362.086,353.093 362.036,352.092C361.906,349.492 362.776,343.785 362.577,333.499C361.652,285.656 353.914,270.186 348.774,256.774C346.616,251.145 344.76,246.701 341.483,243.403C338.435,240.336 334.157,238.269 327.276,237.142C316.847,235.434 300.489,235.891 273.493,238.367C233.254,242.058 233.565,244.988 215.736,257.833C208.065,263.359 174.7,292.529 173.075,294.098C161.36,305.407 151.834,312.349 146.912,317.263C144.864,319.308 143.617,320.978 143.395,322.478C140.159,344.358 142.214,366.326 140.632,376.542C140.354,378.334 139.963,379.771 139.421,380.795C138.988,381.613 138.454,382.176 137.814,382.47C137.166,382.768 136.403,382.797 135.503,382.509C133.741,381.944 132.846,381.85 130.258,382.172C127.608,382.501 123.224,383.26 114.486,384.395C110.598,384.901 108.035,384.124 106.389,382.667C103.925,380.486 103.498,376.738 103.819,373.29C104.171,369.504 105.406,366.097 105.68,365.615C106.195,364.707 106.678,363.805 110.029,363.136C113.222,362.499 119.135,362.057 130.503,361.985C132.369,361.974 133.524,362.552 134.147,363.305C135.687,365.169 134.09,368.172 131.55,367.378C129.943,366.876 124.184,365.085 110.496,367.588C109.971,367.684 109.555,368.22 109.208,368.985C108.3,370.99 107.996,374.567 108.511,377.514C108.634,378.217 108.786,378.749 109.145,379.118C109.502,379.484 110.057,379.676 110.946,379.75C113.898,379.995 120.243,378.876 134.435,376.995C134.984,376.922 135.382,376.534 135.696,375.873C136.052,375.122 136.29,374.039 136.455,372.635C137.251,365.893 136.334,351.92 137.675,331.516C138.087,325.253 138.82,321.631 140.278,318.857C142.455,314.713 146.264,312.462 153.137,306.103C159.227,300.468 198.869,265.418 208.681,257.695C233.335,238.291 234.229,238.414 265.407,234.705C289.456,231.845 299.92,232.373 304.399,231.931C304.425,231.928 304.434,231.902 304.448,231.876C304.467,231.84 304.483,231.798 304.498,231.75C304.563,231.538 304.593,231.249 304.628,230.929C304.687,230.391 304.759,229.775 304.975,229.245C305.214,228.659 305.621,228.176 306.343,227.972C307.132,227.749 307.584,227.588 307.905,227.349C308.393,226.986 308.575,226.45 309.2,225.329C309.96,223.967 311.896,222.774 314.056,221.778C316.259,220.763 318.686,219.938 320.239,219.295C320.867,219.035 321.346,218.812 321.589,218.614C323.523,217.038 325.189,217.623 326.535,218.126C326.898,218.262 327.235,218.391 327.545,218.455C327.8,218.508 328.032,218.518 328.24,218.42C328.539,218.279 328.77,217.935 328.975,217.301C329.44,215.867 330.101,215.21 330.836,215.017C331.289,214.898 331.782,214.952 332.302,215.136C333.011,215.388 333.778,215.887 334.561,216.461C335.803,217.371 337.089,218.475 338.257,218.973C338.942,219.265 339.579,219.347 340.125,218.963C341.435,218.042 342.361,217.748 343.085,217.828C343.837,217.911 344.403,218.39 344.966,219.093C345.958,220.33 346.976,222.298 349.514,223.5C352.129,224.739 352.596,227.018 353.102,228.66C353.224,229.056 353.347,229.411 353.515,229.694C353.728,230.053 354.02,230.28 354.503,230.284C356.83,230.305 358.097,230.497 358.887,231.225C359.673,231.948 360.009,233.229 360.398,235.523C360.596,236.691 361.559,236.828 362.644,236.989C363.806,237.161 365.111,237.328 366.076,238.28C366.723,238.919 367.228,239.913 367.416,241.519C367.574,242.863 367.696,243.565 368.128,244.029C368.567,244.5 369.303,244.719 370.618,245.152C371.532,245.452 372.122,245.87 372.505,246.367C373.074,247.106 373.189,248.034 373.179,249.079C373.163,250.655 372.856,252.519 373.808,254.335C375.259,257.101 374.308,259.897 373.765,262.024C373.597,262.681 373.469,263.269 373.489,263.764C373.506,264.185 373.634,264.53 373.977,264.773C375.313,265.718 375.863,266.509 375.885,267.191C375.899,267.639 375.704,268.062 375.313,268.475C374.808,269.01 373.953,269.54 372.867,270.132C372.675,270.237 372.547,270.357 372.477,270.5C372.367,270.723 372.4,270.987 372.489,271.279C372.676,271.887 373.122,272.589 373.515,273.318C374.037,274.283 374.457,275.293 374.245,276.196C374.098,276.823 373.662,277.416 372.728,277.906C371.847,278.37 371.311,278.755 371.022,279.167C370.71,279.611 370.718,280.079 370.846,280.693C370.994,281.401 371.301,282.279 371.578,283.475C371.888,284.808 371.772,285.753 371.406,286.429C371.054,287.079 370.465,287.494 369.747,287.757C368.752,288.122 367.499,288.191 366.349,288.26C365.492,288.31 364.696,288.358 364.132,288.558C363.863,288.653 363.652,288.778 363.545,288.981C363.477,289.111 363.456,289.269 363.478,289.462C365.845,310.326 365.751,310.339 366.992,331.124C370.958,331.188 375.685,330.293 376.436,330.151C378.106,329.835 379.023,329.444 379.499,328.828C379.968,328.22 379.989,327.411 379.944,326.313C379.901,325.291 379.786,324.035 379.822,322.477C379.86,320.861 380.084,319.727 380.711,318.857C381.338,317.988 382.375,317.373 384.086,316.833C387.349,315.803 393.151,315 403.379,312.836C403.729,312.762 437.332,306.246 450.757,299.877C452.735,298.939 454.27,298.008 455.179,297.099C455.728,296.549 456.044,296.02 456.044,295.496C456.044,294.963 455.702,294.518 455.101,294.128C454.07,293.458 452.316,292.974 449.998,292.639C434.198,290.356 392.682,295.241 372.447,301.328C369.747,302.14 367.92,301.316 367.285,300.234C366.933,299.634 366.917,298.944 367.283,298.337C367.621,297.776 368.304,297.277 369.397,297.031C389.793,292.443 389.749,292.44 410.436,289.863C413.15,289.525 432.398,287.128 446.208,288.072C449.781,288.316 452.992,288.785 455.465,289.566C457.152,290.099 458.501,290.781 459.403,291.628C460.688,292.834 461.236,294.045 461.228,295.232C461.216,296.981 459.967,298.708 457.924,300.328C450.282,306.383 431.477,311.132 429.539,311.62C426.742,312.325 394.437,319.574 386.516,320.633C384.946,320.843 384.414,322.101 384.25,323.365C384.07,324.746 384.319,326.155 384.311,326.498C384.218,330.031 383.261,332.084 381.788,333.297C380.319,334.507 378.316,334.886 376.068,335.029C373.252,335.207 370.045,335.017 367.08,335.788ZM362.747,245.562C362.592,244.339 362.644,243.362 362.565,242.652C362.527,242.303 362.464,242.027 362.288,241.838C362.165,241.707 361.986,241.627 361.736,241.583C361.43,241.528 361.031,241.531 360.511,241.588C360.299,241.61 358.781,241.773 357.701,241.721C357.165,241.695 356.728,241.597 356.538,241.446C355.742,240.819 355.447,239.982 355.378,239.1C355.314,238.281 355.45,237.424 355.524,236.689C355.558,236.352 355.579,236.043 355.553,235.78C355.532,235.576 355.488,235.404 355.373,235.287C355.26,235.171 355.084,235.12 354.832,235.117C354.501,235.113 354.064,235.195 353.489,235.375C352.329,235.737 351.493,235.649 350.875,235.305C349.965,234.799 349.508,233.7 349.203,232.488C348.924,231.382 348.764,230.186 348.39,229.368C348.184,228.918 347.919,228.588 347.48,228.528C346.214,228.356 345.458,228.167 344.949,227.816C344.541,227.534 344.276,227.152 344.052,226.582C343.851,226.069 343.68,225.392 343.436,224.48C343.309,224.004 343.158,223.719 342.947,223.585C342.814,223.5 342.661,223.488 342.492,223.51C342.271,223.539 342.028,223.626 341.764,223.734C340.227,224.364 338.108,225.659 335.727,223.257C335.137,222.662 334.68,222.189 334.276,221.873C333.935,221.608 333.647,221.457 333.329,221.484C332.863,221.524 332.372,221.904 331.648,222.648C330.914,223.404 330.211,223.739 329.547,223.836C328.57,223.98 327.665,223.595 326.835,223.206C326.459,223.029 326.099,222.853 325.754,222.742C325.456,222.647 325.172,222.6 324.901,222.67C324.531,222.767 324.203,223.081 323.88,223.709C323.418,224.607 322.898,225.11 322.363,225.377C321.56,225.777 320.704,225.647 319.886,225.438C319.478,225.334 319.081,225.213 318.708,225.151C318.386,225.097 318.086,225.085 317.818,225.197C314.532,226.569 313.572,228.659 313.361,229.104C313.33,229.167 313.307,229.208 313.294,229.227L313.218,229.305C313.137,229.363 312.37,229.914 311.858,230.524C311.703,230.708 311.571,230.897 311.499,231.079C311.452,231.199 311.426,231.312 311.475,231.41C311.539,231.538 311.698,231.62 311.956,231.69C312.307,231.785 312.811,231.827 313.51,231.805C324.69,231.444 332.525,232.189 338.724,235.936C343.385,238.752 347.128,243.263 350.663,250.296C354.173,257.277 357.483,266.755 361.308,279.54C361.482,280.122 361.557,281.027 361.802,281.893C362.023,282.678 362.384,283.439 363.158,283.828C363.84,284.171 364.824,284.221 366.267,283.806C366.522,283.733 366.583,283.502 366.587,283.199C366.592,282.761 366.461,282.193 366.299,281.564C365.986,280.352 365.558,278.93 365.612,277.747C365.652,276.878 365.944,276.131 366.662,275.638C367.068,275.359 367.406,275.134 367.663,274.92C367.879,274.74 368.036,274.575 368.11,274.38C368.18,274.196 368.17,273.99 368.092,273.726C367.995,273.403 367.801,273.011 367.504,272.509C366.391,270.629 366.865,269.273 367.421,268.173C367.592,267.835 367.772,267.522 367.907,267.227C368.024,266.974 368.109,266.737 368.106,266.505C368.064,263.454 369.193,261.755 369.883,260.432C370.187,259.849 370.409,259.354 370.338,258.829C370.266,258.298 369.895,257.756 369.083,257.067C367.794,255.972 367.214,255.275 367.122,254.494C367.031,253.725 367.424,252.842 368.195,251.344C368.573,250.61 368.691,250.127 368.577,249.78C368.503,249.556 368.323,249.411 368.089,249.29C367.795,249.138 367.419,249.03 367.007,248.916C365.476,248.494 363.496,248.002 362.758,245.613C362.753,245.597 362.75,245.58 362.747,245.562ZM138.418,419.864C153.802,416.794 154.041,420.658 334.489,417.042C390.488,415.92 390.421,414.692 428.517,415.843C430.638,415.907 431.812,415.668 432.451,414.965C432.821,414.557 432.999,413.999 433.094,413.281C433.251,412.107 433.179,410.531 433.213,408.495C433.452,394.447 433.684,388.591 433.428,386.006C433.335,385.075 433.197,384.608 432.937,384.336C432.776,384.167 432.569,384.083 432.319,383.991C432.026,383.884 431.303,383.829 430.191,383.803C427.482,383.74 422.559,383.894 415.956,384.205C378.166,385.984 285.429,392.891 237.5,393.619C161.392,394.774 136.618,396.744 128.84,396.183C127.595,396.094 126.77,395.936 126.233,395.708C125.819,395.532 125.559,395.31 125.397,395.052C125.14,394.642 125.134,394.121 125.229,393.463C125.288,393.062 125.385,392.76 125.607,392.523C125.911,392.2 126.487,391.985 127.701,391.87C130.449,391.609 136.75,391.718 151.483,391.107C190.424,389.493 283.788,389.513 350.467,383.154C356.132,382.613 358.736,382.687 359.963,382.418C360.287,382.346 360.498,382.26 360.629,382.1C360.764,381.937 360.812,381.709 360.85,381.397C361.474,376.256 360.634,369.665 361.307,366.346C361.635,364.725 362.343,363.848 363.575,364.022C364.223,364.113 364.703,364.622 365.019,365.469C365.653,367.172 365.659,370.33 365.68,373.463C365.697,376.084 365.728,378.687 366.19,380.36C366.333,380.876 366.514,381.299 366.758,381.593C366.967,381.844 367.222,381.991 367.541,381.999C378.703,382.275 414.469,379.363 429.672,379.456C432.359,379.473 434.409,379.585 435.58,379.821C436.154,379.937 436.536,380.097 436.717,380.269C436.773,380.321 436.855,380.462 436.913,380.703C437.003,381.074 437.097,381.769 437.188,382.719C437.696,388.046 438.125,401.56 437.36,410.74C437.069,414.218 436.603,417.079 435.913,418.659C435.58,419.422 435.178,419.901 434.744,420.073L434.582,420.105C434.418,420.12 434.02,420.128 433.403,420.129C426.611,420.146 392.697,419.499 352.536,421.2C290.356,423.834 149.147,422.696 139.496,424.421C137.99,424.69 137.148,424.676 136.563,424.266C135.986,423.863 135.635,423.044 135.165,421.589C135.118,421.442 135.189,421.284 135.33,421.222L138.355,419.884C138.375,419.875 138.396,419.868 138.418,419.864ZM441.2,948.01C439.362,898.362 421.799,811.349 423.766,659.491C425.007,563.66 426.237,534.005 425.818,524.641C425.748,523.068 425.633,522.079 425.46,521.448C425.349,521.045 425.224,520.808 425.057,520.666C424.897,520.53 424.705,520.49 424.486,520.449C418.02,519.23 416.603,515.32 415.47,512.528C415.184,511.824 414.919,511.195 414.585,510.712C414.131,510.056 413.541,509.696 412.553,509.837C409.591,510.259 407.584,508.591 406.433,506.333C405.305,504.122 405.013,501.345 405.436,499.504C405.673,498.471 406.147,497.726 406.783,497.454C407.232,497.262 407.774,497.283 408.398,497.624L408.499,497.701C408.526,497.73 408.554,497.767 408.582,497.815C408.645,497.923 408.716,498.113 408.788,498.367C409.144,499.623 409.628,502.644 410.27,503.992C410.358,504.175 410.446,504.325 410.541,504.423C410.576,504.46 410.602,504.499 410.64,504.495C410.667,504.492 410.689,504.47 410.717,504.445C410.783,504.384 410.848,504.292 410.917,504.171C411.226,503.628 411.143,503.3 411.072,502.983C410.974,502.543 410.89,502.117 411.368,501.421C411.84,500.731 412.338,500.433 412.825,500.405C413.311,500.376 413.815,500.62 414.314,501.104C415.611,502.362 416.969,505.325 418.354,508.294C419.701,511.179 421.073,514.071 422.482,515.29C422.89,515.644 423.295,515.851 423.708,515.829C424.123,515.807 424.528,515.553 424.946,515.047C425.227,514.708 425.394,514.445 425.543,512.632C425.916,508.1 426.042,494.491 426.569,449.502C426.64,443.389 426.341,430.568 427.894,425.208C428.146,424.337 428.451,423.655 428.805,423.213C429.078,422.873 429.385,422.665 429.717,422.592C430.246,422.475 430.876,422.697 431.584,423.42C432.852,424.717 432.829,426.349 432.455,427.89C432.11,429.311 431.456,430.641 431.418,431.483C431.376,432.4 427.641,675.48 427.923,695.495C430.06,846.772 439.644,862.653 444.506,934.502C444.579,935.582 444.977,941.461 445.798,947.961C445.808,948.047 445.782,948.133 445.725,948.197C445.668,948.262 445.586,948.299 445.5,948.299L441.5,948.299C441.339,948.299 441.206,948.171 441.2,948.01ZM125.763,108.368C125.779,108.299 125.796,108.222 125.813,108.136C125.904,107.691 125.995,107.048 126.11,106.239C126.839,101.107 128.504,89.371 136.662,78.659C150.959,59.885 172.288,52.633 189.538,55.099C201.083,56.749 210.804,62.749 215.411,72.546C220.937,84.297 220.037,92.195 213.738,104.776C209.571,113.099 203.028,123.487 194.417,138.45C188.916,148.009 178.64,161.58 170.183,177.498C161.75,193.37 155.123,211.579 156.89,230.467C157.044,232.116 156.336,232.983 155.582,233.154C154.804,233.329 153.861,232.801 153.531,231.488C150.411,219.095 154.933,202.999 162.202,186.927C173.062,162.913 190.032,138.941 196.523,127.509C201.317,119.066 206.855,111.27 210.66,103.512C216.322,91.968 218.124,80.509 207.764,67.097C204.01,62.237 195.739,59.212 185.932,58.845C162.928,57.983 131.463,71.814 129.334,111.504L129.334,111.508C129.126,114.554 128.814,116.478 128.423,117.52C128.136,118.286 127.762,118.62 127.404,118.67C127.161,118.704 126.897,118.623 126.628,118.406C126.32,118.157 125.986,117.711 125.637,117.099C123.382,113.135 120.268,101.878 117.078,95.718C105.686,73.724 83.32,70.111 64.54,78.138C45.733,86.176 30.51,105.878 33.453,130.511C34.907,142.681 43.697,152.711 54.448,160.796C70.665,172.992 91.357,180.761 98.391,184.7C127.803,201.174 141.725,216.045 152.59,235.448C154.437,238.747 155.327,243.018 155.015,245.141C154.945,245.614 154.814,245.989 154.634,246.243C154.486,246.452 154.303,246.588 154.092,246.652C153.886,246.714 153.649,246.708 153.38,246.609C153.055,246.488 152.667,246.219 152.224,245.761C151.943,245.47 151.853,245.167 151.8,244.705C151.628,243.18 151.774,239.639 142.872,226.941C123.965,199.972 98.991,188.8 77.478,178.456C63.065,171.525 50.201,164.959 41.708,154.321C38.007,149.685 31.657,142.472 29.913,130.94C28.75,123.256 29.631,113.65 34.72,101.607C44.776,77.81 77.75,63.407 101.635,74.949C111.876,79.897 120.457,89.607 124.839,105.397C125.225,106.789 125.501,107.721 125.712,108.251C125.728,108.291 125.745,108.33 125.763,108.368ZM171.854,616.156C171.772,616.527 171.678,616.783 171.597,617.008C171.455,617.405 171.363,617.689 171.504,618.472C171.863,620.47 171.821,621.751 171.587,622.554C171.41,623.161 171.121,623.52 170.803,623.725C170.263,624.075 169.614,623.987 169.153,623.808C168.85,623.691 168.632,623.533 168.561,623.452C167.872,622.67 167.476,621.21 167.361,619.424C167.102,615.391 168.223,609.674 170.064,606.744C170.789,605.59 171.639,604.864 172.54,604.755C173.165,604.679 173.827,604.886 174.507,605.476C175.33,606.192 175.296,607.024 174.868,607.9C174.497,608.66 173.806,609.458 173.231,610.222C172.962,610.579 172.72,610.928 172.559,611.262C172.42,611.549 172.339,611.821 172.382,612.075C172.422,612.313 172.58,612.525 172.874,612.719C173.233,612.956 173.774,613.157 174.544,613.324C175.984,613.636 177.378,614.904 179.473,616.815C184.22,621.145 192.738,628.772 214.531,635.379C229.411,639.89 254.54,649.935 314.424,639.995C350.945,633.933 365.292,620.532 372.596,613.913C374.509,612.18 375.952,610.91 377.178,610.335C378.073,609.915 378.866,609.85 379.64,610.193C380.138,610.414 380.437,610.707 380.583,611.042C380.796,611.531 380.687,612.141 380.28,612.831C378.925,615.131 374.154,618.551 370.566,621.574C357.337,632.722 337.26,640.008 315.87,644.164C283.815,650.393 248.814,649.601 229.542,644.326C180.382,630.868 183.263,623.494 171.854,616.156ZM214.661,531.485C214.762,530.661 215.371,525.733 217.777,522.04C219.415,519.526 221.876,517.583 225.543,517.807C227.972,517.956 230.333,519.641 232.209,522.047C234.986,525.61 236.698,530.738 236.05,534.589C234.928,541.262 233.498,545.568 232.015,548.317C230.488,551.145 228.887,552.357 227.491,552.812C225.615,553.424 224.08,552.671 223.491,552.508C218.829,551.218 216.475,547.61 215.34,543.72C213.667,537.987 214.659,531.652 214.658,531.523L214.661,531.485ZM193.419,503.11C202.688,492.631 207.876,487.877 215.393,475.436C216.114,474.242 216.726,473.528 217.24,473.182C217.658,472.901 218.031,472.841 218.36,472.929C218.679,473.014 218.969,473.248 219.221,473.62C219.541,474.093 219.811,474.805 220.049,475.658C220.729,478.097 221.167,481.736 222.057,483.996C222.281,484.563 222.531,485.04 222.828,485.377C223.211,485.813 223.676,485.986 224.261,485.75C225.049,485.432 225.929,484.761 226.846,483.97C228.27,482.743 229.776,481.228 231.154,480.208C231.792,479.736 232.405,479.369 232.972,479.172C233.916,478.846 234.745,478.967 235.394,479.777C236.01,480.546 236.478,481.021 236.854,481.25C237.028,481.356 237.166,481.408 237.289,481.377C237.382,481.354 237.456,481.283 237.527,481.188C237.632,481.047 237.722,480.858 237.81,480.63C238.182,479.665 238.474,478.08 239.118,476.434C239.781,474.738 240.811,472.982 242.642,471.738C243.397,471.225 244.041,471.078 244.572,471.175C245.123,471.276 245.573,471.638 245.914,472.198C246.816,473.678 246.951,476.631 246.549,478.977C246.322,480.306 245.918,481.439 245.413,482.022C245.098,482.385 244.738,482.555 244.359,482.515C244.01,482.479 243.62,482.252 243.226,481.74C242.817,481.209 242.6,480.596 242.437,480.141C242.4,480.036 242.35,479.921 242.311,479.832C242.261,479.898 242.202,479.983 242.15,480.073C241.592,481.049 240.675,483.471 239.263,485.185C238.366,486.275 237.269,487.077 235.959,487.132C235.086,487.168 234.11,486.874 233.028,486.085C232.65,485.809 232.171,485.891 231.616,486.126C230.624,486.546 229.432,487.472 228.14,488.352C227.136,489.036 226.074,489.692 225,490.088C223.881,490.5 222.749,490.63 221.652,490.245C220.222,489.744 218.83,488.353 217.631,485.459C217.498,485.139 217.436,483.891 217.226,482.891C217.163,482.591 217.086,482.315 216.984,482.104C216.918,481.967 216.857,481.854 216.755,481.825C216.71,481.813 216.66,481.83 216.602,481.861C216.529,481.899 216.451,481.959 216.367,482.04C216.109,482.286 215.808,482.707 215.447,483.347C214.277,485.422 204.233,498.288 197.632,504.637C194.189,507.948 191.436,509.902 189.371,510.921C187.946,511.625 186.834,511.888 186.037,511.858C185.276,511.828 184.775,511.536 184.512,511.108C184.252,510.686 184.217,510.109 184.447,509.461C184.805,508.456 185.214,507.82 185.725,507.05C186.88,505.311 188.561,502.855 191.354,493.462C191.845,491.813 192.358,490.813 192.845,490.245C193.216,489.811 193.583,489.61 193.922,489.549C194.565,489.432 195.144,489.823 195.549,490.305C195.808,490.614 195.995,490.951 196.087,491.168C196.142,491.299 196.164,491.401 196.167,491.453C196.195,492.027 195.947,493.122 195.567,494.394C194.706,497.272 193.187,501.091 192.968,501.642C192.8,502.064 192.824,502.384 192.939,502.621C193.059,502.868 193.268,503.023 193.419,503.11ZM336.416,440.514C340.664,456.969 345.656,467.468 359.037,486.121C359.393,486.618 359.507,486.399 364.798,491.147C364.956,491.288 365.098,491.364 365.24,491.369C365.375,491.373 365.502,491.311 365.629,491.215C365.984,490.948 366.318,490.441 366.686,489.875C367.19,489.099 367.744,488.215 368.426,487.597C368.917,487.151 369.474,486.84 370.119,486.771C370.798,486.699 371.584,486.895 372.502,487.53C373.432,488.173 373.789,488.686 373.828,489.112C373.871,489.567 373.576,489.986 373.056,490.431C372.227,491.14 370.802,492.001 370.047,493.741C369.796,494.32 369.248,494.928 368.528,495.481C367.488,496.279 366.091,496.969 364.786,497.313C363.888,497.551 363.031,497.623 362.355,497.471C361.856,497.359 361.449,497.128 361.171,496.765C345.659,476.523 334.317,453.446 332.299,442.201C331.945,440.232 331.878,438.618 332.111,437.434C332.301,436.476 332.69,435.787 333.264,435.386C333.843,434.982 334.619,434.858 335.61,435.085C335.997,435.173 336.254,435.293 336.427,435.485C336.602,435.68 336.703,435.958 336.722,436.405C336.753,437.112 336.589,438.33 336.416,440.514ZM320.529,428.487C321.12,427.444 321.403,426.759 321.642,426.254C322.034,425.429 322.316,425.04 323.473,424.438C324.021,424.153 324.47,424.004 324.824,423.97C325.109,423.942 325.343,423.985 325.531,424.081C325.972,424.307 326.198,424.864 326.119,425.735C325.965,427.453 324.68,430.561 322.67,434.368C318.029,443.158 309.535,455.738 302.545,463.544C296.752,470.013 290.3,478.627 285.627,482.89C284.398,484.012 283.286,484.836 282.339,485.255C281.651,485.56 281.039,485.655 280.522,485.528C279.98,485.396 279.61,485.235 279.384,485.053C279.184,484.892 279.078,484.709 279.042,484.51C278.99,484.226 279.095,483.883 279.376,483.488C280.206,482.319 282.677,480.455 285.294,477.331C310.354,447.415 310.987,447.735 320.521,428.501L320.529,428.487ZM324.681,524.465C324.859,524.276 325.007,524.029 325.201,523.766C325.529,523.323 325.97,522.837 326.803,522.462C328.756,521.582 333.007,521.315 343.629,523.979C345.592,524.471 357.358,527.732 364.785,530.693C366.71,531.461 368.346,532.209 369.451,532.884C370.242,533.368 370.768,533.83 370.975,534.227C371.051,534.374 371.546,535.561 371.563,536.563C371.576,537.347 371.302,538.011 370.506,538.175C370.198,538.239 369.795,538.222 369.278,538.082C368.572,537.889 367.627,537.46 366.379,536.693C364.144,535.319 350.046,530.626 339.96,528.174C335.673,527.131 332.117,526.487 330.53,526.699C330.253,526.736 329.908,526.912 329.524,527.135C328.883,527.507 328.153,528.016 327.467,528.374C326.968,528.634 326.487,528.813 326.073,528.833C325.745,528.848 325.452,528.77 325.206,528.577C324.963,528.386 324.76,528.073 324.636,527.589C324.477,526.962 324.444,526.014 324.601,524.637C324.608,524.573 324.636,524.512 324.681,524.465ZM309.658,346.48C309.674,346.096 309.795,343.335 310.366,341.472C310.637,340.587 311.033,339.906 311.52,339.672C311.579,339.644 311.715,339.61 311.896,339.615C312.23,339.625 312.758,339.755 313.126,340.201C313.361,340.487 313.536,340.906 313.531,341.522C313.524,342.54 313.463,350.338 314.205,355.375C314.392,356.646 314.629,357.738 314.934,358.492C315.111,358.926 315.295,359.243 315.526,359.376C315.792,359.53 316.267,359.647 316.898,359.746C317.907,359.906 319.294,360.006 320.875,360.064C327.069,360.291 336.218,359.875 337.452,359.819C337.785,359.804 338.043,359.635 338.248,359.348C338.491,359.008 338.66,358.518 338.783,357.912C339.402,354.863 338.805,349.023 338.813,343.462C338.815,341.651 340.186,340.733 341.234,341.057C341.923,341.269 342.549,342.023 342.548,343.508C342.545,352.054 342.488,351.96 343,360.487C343.037,361.1 342.982,361.6 342.67,362.01C342.37,362.405 341.817,362.731 340.794,362.965C338.016,363.602 331.5,363.661 316.501,363.549C314.378,363.534 312.938,362.504 311.94,360.542C310.516,357.741 310.016,352.963 309.658,346.51L309.658,346.48ZM269.611,472.357C269.641,472.315 269.671,472.271 269.701,472.229C269.804,472.09 269.922,471.98 270.059,471.924C272.371,467.998 274.241,465.914 275.679,464.893C276.713,464.158 277.547,463.955 278.178,464.002C278.985,464.063 279.494,464.526 279.728,464.944C279.843,465.149 279.893,465.349 279.891,465.499L279.881,465.576L279.844,465.666C279.775,465.794 279.402,466.337 278.819,467.143C277.043,469.601 273.295,474.565 270.452,477.645C269.198,479.004 268.106,479.996 267.428,480.286C266.581,480.648 265.608,480.408 264.904,479.835C264.198,479.261 263.771,478.36 263.989,477.442C264.235,476.408 264.738,475.447 264.994,474.415C265.373,472.887 265.529,471.957 265.52,471.461C265.519,471.432 265.517,471.401 265.513,471.372L265.471,471.41C265.28,471.598 265.051,471.905 264.806,472.273C263.806,473.776 262.564,476.279 262.502,476.402C260.804,479.819 258.073,482.865 255.495,484.818C253.742,486.145 252.054,486.965 250.799,487.082C250.043,487.153 249.431,486.976 249.013,486.549C248.609,486.135 248.376,485.467 248.419,484.496C248.427,484.329 248.494,484.169 248.632,484.011C248.776,483.846 249.016,483.675 249.344,483.478C251.285,482.315 256.58,479.978 261.763,469.148C261.987,468.681 262.59,466.898 263.618,465.66C264.363,464.763 265.326,464.154 266.507,464.388C267.651,464.616 268.335,465.718 268.702,467.033C269.185,468.763 269.141,470.837 269.124,471.357L269.611,472.357ZM282.326,291.538C282.744,294.912 282.581,297.469 282.043,299.333C281.485,301.266 280.522,302.472 279.376,303.099C277.991,303.858 276.325,303.777 274.729,303.057C272.404,302.006 270.228,299.589 269.361,296.541C268.437,293.293 269.121,289.541 270.63,286.858C271.657,285.03 273.071,283.703 274.607,283.323C275.918,282.999 277.33,283.344 278.691,284.673C279.985,285.936 281.243,288.113 282.314,291.484C282.32,291.501 282.324,291.519 282.326,291.538ZM278.513,291.508L278.511,291.505C278.252,290.961 278.109,290.366 277.844,289.825C277.151,288.412 276.441,287.697 275.744,287.537C275.098,287.388 274.504,287.76 274.011,288.413C273.18,289.515 272.653,291.406 272.709,293.402C272.765,295.401 273.41,297.51 274.955,299.043C275.089,299.176 275.656,299.48 276.322,299.592C276.972,299.702 277.728,299.621 278.266,298.945C278.651,298.462 278.922,297.696 279.001,296.534C279.085,295.317 278.955,293.684 278.513,291.508ZM257.387,297.596C256.049,296.326 256.074,296.315 255.943,296.222C254.625,295.288 253.957,294.575 253.692,294.047C253.464,293.593 253.497,293.238 253.655,292.963C253.866,292.597 254.362,292.362 254.911,292.248C255.66,292.092 256.488,292.141 256.595,292.172C258.073,292.596 259.26,292.473 260.161,292.005C261.879,291.115 262.538,289.002 262.204,287.271C261.988,286.148 261.349,285.179 260.275,284.841C259.59,284.626 258.737,284.669 257.717,285.065C252.974,286.904 250.865,288.815 250.063,290.658C249.273,292.472 249.771,294.195 250.181,295.641C250.37,296.306 250.543,296.917 250.59,297.457C250.644,298.066 250.543,298.593 250.182,299.027C249.662,299.652 249.173,299.891 248.752,299.879C248.472,299.871 248.208,299.756 247.967,299.541C247.665,299.27 247.394,298.826 247.166,298.25C246.212,295.838 245.959,291 246.418,288.087C246.54,287.312 246.713,286.671 246.932,286.236C247.11,285.882 247.327,285.654 247.557,285.554C248.349,285.209 248.854,285.098 249.287,285.014C249.88,284.897 250.324,284.834 251.283,284.181C256.49,280.63 260.599,280.614 263.142,282.21C267.004,284.635 267.365,290.848 262.581,294.606C262.022,295.044 261.724,295.503 261.633,295.984C261.493,296.726 261.832,297.5 262.363,298.287C263.23,299.57 264.618,300.867 265.623,302.063C266.344,302.922 266.864,303.741 266.931,304.465C266.994,305.16 266.959,305.656 266.848,305.974C266.745,306.269 266.576,306.441 266.37,306.522C266.082,306.636 265.665,306.558 265.152,306.223C263.638,305.233 260.921,301.935 257.387,297.596ZM283.687,209.496C285.569,204.884 289.446,200.784 294.3,197.233C301.531,191.944 310.93,187.871 319.046,185.114C325.358,182.969 330.893,181.62 334.026,181.111C335.431,180.883 336.376,180.832 336.724,180.931C337.303,181.094 337.687,181.278 337.912,181.465C338.123,181.639 338.219,181.828 338.238,182.014C338.256,182.202 338.197,182.399 338.045,182.595C337.881,182.806 337.593,183.029 337.2,183.248C334.473,184.773 326.328,186.448 324.622,186.925C310.927,190.756 300.538,196.32 294.07,201.704C289.808,205.25 287.252,208.705 286.612,211.526C286.094,213.809 285.679,215.058 285.359,215.608C285.147,215.971 284.918,216.09 284.753,216.096L284.643,216.087L284.542,216.055L284.418,215.976C284.387,215.949 284.356,215.918 284.326,215.88C284.226,215.754 284.131,215.54 284.056,215.259C283.636,213.691 283.653,209.715 283.666,209.579C283.669,209.551 283.676,209.522 283.687,209.496ZM335.473,282.687C334.22,282.62 333.262,282.626 332.518,282.743C331.826,282.851 331.331,283.053 330.963,283.395C330.591,283.741 330.35,284.225 330.15,284.869C329.934,285.563 329.77,286.435 329.572,287.517C329.421,288.341 329.506,288.911 329.811,289.286C330.033,289.558 330.366,289.719 330.773,289.811C331.229,289.914 331.774,289.93 332.378,289.894C334.278,289.78 336.732,289.151 338.883,288.888C340.384,288.704 341.743,288.703 342.697,289.129C343.241,289.372 343.574,289.619 343.743,289.847C343.902,290.062 343.942,290.275 343.897,290.48C343.858,290.66 343.745,290.843 343.55,291.014C343.325,291.211 342.976,291.404 342.532,291.585C339.355,292.873 330.94,293.672 330.541,293.746C330.354,293.781 330.191,293.933 330.043,294.14C329.768,294.527 329.572,295.109 329.496,295.74C329.373,296.762 329.563,297.923 330.335,298.587C330.843,299.025 331.602,299.231 332.671,299.055C333.908,298.852 335.53,298.148 337.633,296.714C338.445,296.161 339.076,295.884 339.534,295.805C339.919,295.738 340.207,295.804 340.409,295.942C340.741,296.17 340.882,296.632 340.753,297.245C340.599,297.977 340.063,298.959 339.2,299.886C337.929,301.251 335.951,302.5 333.504,302.65C330.5,302.835 328.607,302.277 327.422,301.341C326.014,300.229 325.577,298.573 325.501,296.887C325.429,295.284 325.685,293.659 325.661,292.512C325.661,292.497 325.661,292.482 325.663,292.467C326.099,289.153 325.874,289.167 327.013,282.391C327.186,281.362 327.801,280.589 328.689,280.038C329.949,279.256 331.777,278.929 333.602,278.942C335.721,278.958 337.831,279.43 339.031,280.134C339.611,280.474 339.987,280.879 340.108,281.301C340.429,282.42 340.231,283.047 339.844,283.37C339.46,283.69 338.829,283.736 338.141,283.607C337.299,283.449 336.367,283.054 335.826,282.827C335.667,282.761 335.505,282.699 335.473,282.687ZM166.157,508.196C174.973,498.839 178.762,495.171 180.759,493.834C181.477,493.354 181.984,493.161 182.402,493.106C182.833,493.05 183.177,493.137 183.566,493.244C184.003,493.363 184.334,493.493 184.559,493.646C184.753,493.777 184.878,493.93 184.945,494.103C185.013,494.278 185.024,494.478 184.96,494.713C184.886,494.983 184.702,495.315 184.392,495.726C182.99,497.584 178.864,501.297 171.468,509.471C164.643,517.013 159.471,519.907 156.236,520.626C154.878,520.927 153.843,520.85 153.149,520.579C152.629,520.377 152.286,520.064 152.112,519.712C151.697,518.872 151.61,518.304 151.743,517.901C151.834,517.624 152.022,517.406 152.309,517.229C152.658,517.013 153.174,516.857 153.831,516.686C156.38,516.025 161.168,515.06 166.132,508.225L166.157,508.196ZM153.647,596.478C153.698,595.994 153.989,593.294 155.25,591.071C156.118,589.543 157.439,588.245 159.424,587.98C168.224,586.808 171.802,586.218 173.467,586.109C174.711,586.027 174.999,586.205 175.438,586.567C176.088,587.105 176.339,587.611 176.326,588.053C176.318,588.344 176.2,588.62 175.979,588.876C175.699,589.201 175.238,589.5 174.64,589.764C171.066,591.345 162.355,591.83 161.601,591.995C159.279,592.504 158.335,594.104 158.069,596.144C157.883,597.566 158.02,599.196 158.262,600.838C158.632,603.352 159.249,605.894 159.389,607.785C159.447,608.581 159.42,609.267 159.269,609.799C159.156,610.196 158.972,610.513 158.714,610.741C158.325,611.083 157.956,611.224 157.617,611.219C157.288,611.215 156.976,611.076 156.689,610.811C156.325,610.473 155.993,609.915 155.702,609.201C154.19,605.48 153.696,597.357 153.646,596.528C153.645,596.511 153.645,596.494 153.647,596.478ZM170.636,257.482C170.836,252.762 170.786,252.787 170.855,252.384C172.549,242.47 182.801,228.968 187.915,224.396C188.843,223.566 189.612,223.027 190.137,222.834C190.442,222.722 190.689,222.72 190.866,222.791C191.734,223.138 191.805,224.017 191.248,225.192C190.168,227.47 186.761,231.025 185.178,233.042C173.833,247.497 173.827,253.749 174.339,257.805C174.567,259.608 174.873,260.991 174.399,262.441C174.369,262.53 174.291,262.653 174.157,262.766C173.921,262.963 173.499,263.154 173.015,263.079C172.626,263.018 172.186,262.787 171.789,262.207C171.271,261.449 170.803,260.037 170.636,257.515L170.636,257.482ZM405.394,598.523C405.241,599.07 403.52,605.175 401.742,607.208C401.288,607.727 400.812,607.99 400.368,607.95C399.927,607.91 399.467,607.573 399.071,606.754C398.933,606.469 398.907,606.04 398.986,605.496C399.146,604.394 399.716,602.752 400.23,600.91C401.059,597.944 401.766,594.439 400.191,591.912C399.415,590.669 398.08,589.675 395.938,589.099C393.731,588.506 390.687,588.358 386.54,588.837C384.519,589.071 383.594,588.023 383.752,586.9C383.9,585.85 385.076,584.596 387.452,584.208C388.047,584.111 391.546,583.93 395.28,584.668C397.785,585.162 400.391,586.071 402.31,587.678C403.829,588.95 404.648,590.8 405.07,592.625C405.692,595.314 405.453,597.937 405.404,598.469C405.403,598.487 405.399,598.505 405.394,598.523ZM298.095,293.089C297.429,295.72 297.199,297.139 296.978,298.006C296.725,298.998 296.48,299.335 295.731,299.824C294.573,300.581 293.576,300.794 292.691,300.615C291.809,300.438 291.029,299.865 290.309,299C288.293,296.576 286.719,291.779 284.203,287.682C283.266,286.156 284.308,284.369 285.679,284.221C286.559,284.126 287.637,284.686 288.368,286.551C288.391,286.608 289.875,291.72 291.606,294.62C292.028,295.328 292.461,295.902 292.894,296.216C293.123,296.381 293.345,296.472 293.566,296.429C293.699,296.404 293.799,296.298 293.891,296.151C294.022,295.944 294.125,295.66 294.214,295.322C294.666,293.585 294.684,290.504 295.023,288.265C295.144,287.462 295.308,286.763 295.539,286.259C295.717,285.872 295.941,285.592 296.202,285.436C296.61,285.194 297.137,285.213 297.803,285.7C298.618,286.296 299.714,287.657 301.177,290.1C303.189,293.459 305.551,295.253 306.412,296.363C306.792,296.853 306.894,297.258 306.743,297.589C306.606,297.888 306.213,298.173 305.435,298.406C303.518,298.978 302.255,297.614 301.113,296.042C300.59,295.321 300.088,294.565 299.538,293.986C299.101,293.526 298.638,293.177 298.095,293.089ZM388.756,494.805C388.763,494.789 388.779,494.754 388.785,494.726C388.806,494.637 388.812,494.523 388.807,494.382C388.748,492.852 388.323,491.631 388.289,490.846C388.271,490.433 388.358,490.118 388.568,489.899C388.699,489.763 388.882,489.658 389.137,489.601C389.442,489.532 389.871,489.53 390.461,489.613C391.015,489.692 391.361,489.809 391.623,489.984C391.891,490.163 392.076,490.405 392.29,490.755C392.535,491.157 392.833,491.718 393.431,492.511L393.435,492.517C394.27,493.674 394.834,494.624 395.341,495.358C395.812,496.038 396.222,496.526 396.784,496.797C397.546,497.164 398.568,497.128 400.328,496.719C401.341,496.484 402.076,496.472 402.574,496.601C402.97,496.703 403.235,496.894 403.396,497.132C403.656,497.518 403.65,498.055 403.382,498.64C403.037,499.389 402.256,500.235 401.222,500.867C399.679,501.81 397.583,502.276 395.594,501.277C394.64,500.798 394.144,500.229 393.676,499.766C393.376,499.47 393.093,499.22 392.661,499.103C392.209,498.98 391.607,499 390.688,499.219C388.818,499.665 386.735,498.759 384.857,497.225C382.109,494.98 379.797,491.408 379.221,489.076C379.061,488.429 379.034,487.869 379.148,487.445C379.236,487.113 379.407,486.855 379.658,486.681C380.037,486.418 380.628,486.341 381.471,486.58C381.523,486.595 381.605,486.636 381.702,486.723C381.821,486.831 382.004,487.037 382.233,487.317C383.459,488.821 386.137,492.582 387.824,494.164C388.077,494.402 388.305,494.588 388.501,494.703C388.565,494.741 388.625,494.77 388.68,494.789C388.705,494.798 388.74,494.803 388.756,494.805ZM325.488,281.931C325.333,283.629 323.822,284.385 321.879,284.646C320.255,284.864 318.336,284.753 316.8,284.681C315.82,284.635 315.002,284.602 314.539,284.699C314.276,284.754 314.116,284.969 314.007,285.278C313.792,285.885 313.787,286.818 313.892,287.924C314.191,291.078 315.416,295.587 315.868,298.293C316.01,299.143 316.075,299.824 316.023,300.244C315.992,300.495 315.915,300.674 315.818,300.782C315.367,301.282 314.932,301.456 314.538,301.42C314.289,301.398 314.049,301.292 313.822,301.105C313.532,300.867 313.258,300.489 313.008,300.004C311.517,297.111 310.777,290.235 310.705,289.561C310.579,288.374 310.381,287.52 310.114,286.918C309.874,286.377 309.585,286.053 309.238,285.885C308.692,285.622 308.03,285.731 307.282,285.901C306.446,286.091 305.515,286.372 304.524,286.449C302.851,286.578 301.6,284.998 302.058,283.674C302.347,282.839 303.34,282.043 305.47,281.936C312.303,281.594 316.138,281.04 318.807,280.808C321.541,280.57 323.081,280.666 325.309,281.628C325.428,281.68 325.5,281.802 325.488,281.931ZM369.323,213.586C369.75,216.027 369.923,217.566 369.907,218.422C369.9,218.853 369.838,219.134 369.754,219.291C369.736,219.325 369.716,219.355 369.696,219.381L369.618,219.463L369.517,219.53L369.399,219.568L369.302,219.576L369.212,219.565C369.143,219.551 369.068,219.52 368.988,219.47C368.822,219.362 368.614,219.136 368.386,218.807C366.9,216.662 364.106,209.76 362.806,208.025C360.785,205.327 355.859,201.209 350.651,199.205C347.227,197.887 343.679,197.476 340.771,199.047C339.912,199.511 339.197,199.262 338.787,198.719C338.513,198.356 338.378,197.846 338.448,197.305C338.599,196.147 339.711,194.789 342.502,194.761C344.007,194.746 352.282,194.663 360.345,200.708C365.027,204.218 368.779,212.377 369.3,213.513C369.311,213.536 369.318,213.561 369.323,213.586ZM152.937,271.158L152.939,271.161C153.604,271.973 160.291,279.778 161.73,283.233C161.936,283.729 162.036,284.146 162.021,284.453C162.007,284.737 161.903,284.949 161.726,285.089C161.564,285.217 161.328,285.292 160.998,285.269C160.621,285.243 160.09,285.087 159.382,284.761C159.064,284.615 158.65,284.265 158.157,283.732C157.466,282.984 156.596,281.864 155.566,280.476C151.597,275.13 145.226,265.774 137.511,258.513C136.901,257.939 136.653,257.131 136.753,256.476C136.826,255.995 137.081,255.592 137.502,255.381C138.117,255.072 139.176,255.176 140.639,256.326C141.53,257.027 142.374,256.692 152.937,271.158ZM304.147,218.069C311.54,212.584 327.277,207.881 336.024,207.346C338.324,207.205 340.15,207.358 341.238,207.839C342.076,208.209 342.511,208.772 342.498,209.512C342.489,210.043 342.386,210.375 342.202,210.583C342.073,210.729 341.902,210.826 341.673,210.878C341.413,210.937 341.061,210.935 340.591,210.901C337.812,210.696 330.551,209.465 312.781,217.13C312.061,217.441 308.519,219.437 305.841,220.588C304.641,221.105 303.602,221.445 303.037,221.428C302.732,221.419 302.527,221.311 302.415,221.151C302.333,221.033 302.289,220.878 302.317,220.675C302.344,220.48 302.449,220.217 302.659,219.884C302.935,219.446 303.403,218.862 304.106,218.105C304.119,218.092 304.132,218.08 304.147,218.069ZM341.397,543.572C337.191,538.49 337.229,538.513 336.855,538.083C334.591,535.478 332.61,535.32 331.396,534.879C330.918,534.705 330.546,534.487 330.289,534.122C330.038,533.768 329.892,533.266 329.897,532.495C329.905,531.185 330.245,530.382 330.776,529.969C331.118,529.704 331.544,529.586 332.041,529.608C332.707,529.637 333.515,529.925 334.41,530.419C338.277,532.558 343.895,538.605 346.726,542.659C347.59,543.897 348.196,544.955 348.426,545.664C348.547,546.037 348.564,546.334 348.502,546.536C348.279,547.258 347.921,547.657 347.506,547.838C346.904,548.101 346.129,547.899 345.333,547.41C343.563,546.323 341.628,543.867 341.397,543.572ZM203.651,292.477C204.139,289.673 204.248,288.149 204.4,287.27C204.488,286.766 204.599,286.451 204.772,286.226C204.954,285.988 205.208,285.838 205.609,285.703C206.066,285.549 206.433,285.567 206.724,285.703C207.145,285.9 207.43,286.368 207.562,287.068C207.993,289.348 206.879,294.342 206.295,298.331C206.025,300.174 205.867,301.796 206.055,302.809C206.131,303.214 206.244,303.512 206.477,303.635C206.709,303.757 207.024,303.678 207.458,303.441C208.329,302.964 208.996,302.776 209.48,302.773C210.074,302.769 210.438,303.023 210.629,303.394C210.834,303.793 210.823,304.368 210.608,304.959C210.31,305.779 209.628,306.629 208.742,307.016C206.776,307.876 205.385,307.808 204.422,307.195C203.458,306.582 202.9,305.399 202.639,303.934C201.901,299.786 203.503,293.334 203.651,292.477ZM240.043,289.958C240,290.014 239.967,290.109 239.93,290.228C239.851,290.483 239.786,290.831 239.729,291.228C239.502,292.816 239.433,295.148 239.423,295.498L239.423,295.503C239.458,297.129 239.78,301.456 239.198,303.482C239.018,304.106 238.735,304.527 238.386,304.684C238.119,304.803 237.801,304.797 237.427,304.591C236.842,304.269 236.435,303.484 236.197,302.397C235.869,300.908 235.818,298.835 235.818,296.782C235.819,294.433 235.886,292.11 235.657,290.755C235.612,290.488 235.555,290.261 235.482,290.084C235.43,289.958 235.377,289.86 235.3,289.81C234.578,289.343 233.897,289.038 233.448,288.75C233,288.462 232.766,288.156 232.771,287.81C232.776,287.499 232.996,287.099 233.601,286.587C233.966,286.279 234.719,286.028 235.669,285.875C237.771,285.538 240.862,285.637 242.519,286.271C243.228,286.542 243.684,286.931 243.802,287.379C243.887,287.703 243.817,288.078 243.505,288.493C243.458,288.556 243.359,288.638 243.208,288.718C242.971,288.844 242.569,288.999 242.123,289.159C241.486,289.387 240.753,289.629 240.316,289.818C240.187,289.874 240.043,289.958 240.043,289.958ZM386.342,613.523C386.218,615.211 385.935,616.289 385.588,616.949C385.324,617.45 385.016,617.732 384.705,617.873C384.109,618.145 383.47,617.912 382.981,617.549C382.666,617.315 382.416,617.035 382.286,616.847C382.202,616.725 382.162,616.623 382.152,616.567C382.074,616.145 382.237,615.471 382.392,614.586C382.725,612.683 382.946,609.71 379.845,606.083C379.735,605.954 379.354,605.713 378.876,605.386C378.094,604.85 377.066,604.116 376.396,603.333C375.9,602.753 375.605,602.138 375.667,601.555C375.71,601.147 375.921,600.743 376.381,600.371C376.533,600.248 376.879,600.102 377.393,600.077C378.425,600.027 380.237,600.443 382.435,602.572C384.188,604.271 385.095,605.39 385.584,606.508C386.312,608.17 386.108,609.837 386.343,613.481L386.342,613.523ZM134.458,419.42C131.54,414.041 130.539,405.057 131.629,401.436C131.95,400.368 132.48,399.747 133.125,399.667C133.559,399.614 134.078,399.795 134.66,400.316C134.728,400.376 134.812,400.504 134.889,400.705C135.015,401.036 135.158,401.62 135.309,402.379C136.147,406.601 137.266,416.381 137.391,417.475C137.403,417.575 137.363,417.674 137.286,417.739C137.099,417.895 137.171,418.017 137.176,418.137C137.186,418.342 137.158,418.558 136.857,418.809C136.795,418.862 136.749,418.892 136.635,418.935C136.473,418.997 136.086,419.106 134.823,419.559C134.684,419.609 134.529,419.55 134.458,419.42ZM287.431,469.5C287.05,470.231 282.82,478.313 279.736,480.728C278.99,481.313 278.289,481.569 277.716,481.42C277.139,481.27 276.633,480.709 276.341,479.528C276.132,478.68 276.133,478.065 276.282,477.569C276.504,476.829 277.061,476.34 277.839,475.736C279.014,474.824 280.705,473.592 282.289,470.396C282.294,470.386 283.175,467.744 284.463,466.237C285.079,465.517 285.796,465.059 286.542,465.137C287.453,465.232 287.919,465.46 288.133,465.754C288.362,466.07 288.348,466.502 288.173,467.065C287.99,467.656 287.643,468.429 287.46,469.416C287.455,469.445 287.445,469.473 287.431,469.5ZM324.511,343.895C329.652,344.084 329.656,343.766 334.621,345.041C335.442,345.252 336.177,345.966 336.544,346.718C336.806,347.256 336.874,347.811 336.705,348.225C336.551,348.602 336.213,348.892 335.612,348.961C335.119,349.019 334.418,348.92 333.469,348.566C328.755,346.812 321.332,347.775 318.154,347.834C317.56,347.845 317.104,347.823 316.828,347.755C316.648,347.711 316.524,347.642 316.449,347.568C315.905,347.032 315.759,346.554 315.844,346.155C315.929,345.76 316.258,345.407 316.782,345.128C318.823,344.041 324.011,343.906 324.493,343.895L324.511,343.895ZM402.547,534.569L402.538,534.571C402.132,534.71 398.738,536.127 396.678,536.031C395.618,535.981 394.887,535.55 394.841,534.545C394.824,534.172 394.958,533.797 395.23,533.431C395.588,532.949 396.198,532.476 396.977,532.039C399.889,530.407 405.209,529.246 407.86,529.613C408.391,529.687 408.821,529.823 409.121,530.017C409.361,530.171 409.525,530.364 409.612,530.589C409.699,530.814 409.71,531.075 409.619,531.376C409.507,531.747 409.227,532.196 408.73,532.719C408.473,532.989 408.302,533.119 407.786,533.277C407.119,533.481 405.786,533.745 402.547,534.569ZM404.489,545.572C402.867,545.508 401.97,545.684 401.315,545.685C400.573,545.686 400.097,545.504 399.356,544.639C398.863,544.065 398.722,543.56 398.806,543.138C398.861,542.868 399.008,542.623 399.242,542.408C399.543,542.132 399.999,541.901 400.569,541.726C402.971,540.987 407.504,541.173 410.148,541.976C410.858,542.191 411.435,542.453 411.813,542.747C412.114,542.982 412.297,543.244 412.358,543.515C412.537,544.305 412.244,544.839 411.657,545.196C411.151,545.503 410.391,545.665 409.521,545.728C407.879,545.848 405.83,545.634 404.489,545.572ZM399.653,552.284C401.704,553.713 403.126,554.262 403.957,554.801C404.339,555.049 404.606,555.301 404.773,555.61C405.018,556.061 405.054,556.648 404.843,557.583C404.65,558.435 404.008,558.802 403.099,558.786C401.302,558.753 398.334,557.081 396.498,555.338C395.746,554.624 395.185,553.896 394.951,553.269C394.765,552.773 394.777,552.328 394.997,551.971C395.218,551.612 395.673,551.322 396.45,551.195C397.445,551.032 397.791,551.166 398.308,551.49C398.608,551.677 398.973,551.943 399.615,552.262C399.628,552.268 399.641,552.276 399.653,552.284ZM284.7,587.918C283.551,588.206 282.741,588.285 282.193,588.228C281.759,588.184 281.467,588.052 281.281,587.882C281.031,587.653 280.943,587.348 280.987,587C281.023,586.719 281.152,586.404 281.344,586.092C281.718,585.484 282.331,584.883 282.828,584.575C283.086,584.416 283.323,584.335 283.497,584.333C284.115,584.329 284.54,584.466 284.828,584.671C285.321,585.02 285.453,585.58 285.403,586.151C285.336,586.896 284.954,587.646 284.894,587.764C284.855,587.84 284.784,587.896 284.7,587.918ZM266.982,587.292C267.489,586.715 267.869,586.22 268.207,585.903C268.487,585.641 268.751,585.492 269.016,585.465C269.256,585.44 269.506,585.506 269.778,585.708C269.995,585.87 270.234,586.128 270.508,586.507L270.549,586.581C270.56,586.608 270.574,586.648 270.587,586.701C270.635,586.899 270.697,587.359 270.695,587.856C270.694,588.236 270.655,588.636 270.551,588.959C270.469,589.216 270.344,589.427 270.18,589.567C269.939,589.773 269.609,589.856 269.157,589.675C268.656,589.475 267.945,588.892 266.973,587.677C266.882,587.563 266.886,587.401 266.982,587.292Z" style="fill:rgb(1,1,1);"/>
</svg>
